# xmcd
#
# Track frame offsets:
#	150
#	15375
#	29250
#	49950
#	63975
#	78450
#	93450
#	108150
#	119775
#	133875
#	148200
#	162975
#	175575
#	191700
#	205125
#	222600
#
# Disc length: 3175 seconds
#
# Revision: 3
# Processed by: cddbd v1.5.2PL0 Copyright (c) Steve Scherf et al.
# Submitted via: EasyCDDAExtractor 15.2.5.1
#
DISCID=ef0c6510
DTITLE=陳思安 (1) - 餐廳小唱(台灣版)
DYEAR=1980
DGENRE=Alternative
TTITLE0=第一個萝
TTITLE1=牽引
TTITLE2=何日君再來
TTITLE3=濛濛細雨憶當年
TTITLE4=海韻
TTITLE5=離情
TTITLE6=又是細雨
TTITLE7=匆匆
TTITLE8=初戀
TTITLE9=兒女情長
TTITLE10=海角天涯
TTITLE11=離情依依
TTITLE12=藍色的憂鬱
TTITLE13=滴滴眼淚都是愛
TTITLE14=苦酒滿杯
TTITLE15=煙雨斜陽
EXTD=YEAR: 1989
EXTT0=
EXTT1=
EXTT2=
EXTT3=
EXTT4=
EXTT5=
EXTT6=
EXTT7=
EXTT8=
EXTT9=
EXTT10=
EXTT11=
EXTT12=
EXTT13=
EXTT14=
EXTT15=
PLAYORDER=
